<svg xmlns="http://www.w3.org/2000/svg" width="1280" height="640" viewBox="0 0 1280 640" role="img" aria-labelledby="title desc">
  <title id="title">Ray Refs preview</title>
  <desc id="desc">Dark visual reference board preview with compact image-grid cards, watchlist, and taste graph.</desc>
  <defs>
    <radialGradient id="glow" cx="28%" cy="0%" r="80%">
      <stop offset="0" stop-color="#d7ff38" stop-opacity="0.32"/>
      <stop offset="0.42" stop-color="#263000" stop-opacity="0.22"/>
      <stop offset="1" stop-color="#080808" stop-opacity="0"/>
    </radialGradient>
    <linearGradient id="panel" x1="0" x2="1" y1="0" y2="1">
      <stop offset="0" stop-color="#181818"/>
      <stop offset="1" stop-color="#050505"/>
    </linearGradient>
    <filter id="soft" x="-20%" y="-20%" width="140%" height="140%">
      <feDropShadow dx="0" dy="18" stdDeviation="24" flood-color="#000" flood-opacity="0.5"/>
    </filter>
    <pattern id="grain" width="8" height="8" patternUnits="userSpaceOnUse">
      <path d="M0 0h1v1H0zM5 3h1v1H5zM2 6h1v1H2z" fill="#fff" opacity="0.06"/>
    </pattern>
  </defs>

  <rect width="1280" height="640" fill="#080808"/>
  <rect width="1280" height="640" fill="url(#glow)"/>
  <rect width="1280" height="640" fill="url(#grain)" opacity="0.55"/>

  <g transform="translate(74 68)">
    <text x="0" y="0" dominant-baseline="hanging" font-family="Inter, ui-sans-serif, system-ui, Arial" font-size="84" font-weight="900" letter-spacing="-7" fill="#f2f2e8">RAY REFS</text>
    <text x="3" y="100" font-family="Inter, ui-sans-serif, system-ui, Arial" font-size="24" fill="#8d8d84">private taste memory, public visual browser</text>
    <g transform="translate(0 150)" font-family="Inter, ui-sans-serif, system-ui, Arial" font-size="20" font-weight="700">
      <rect x="0" y="0" rx="22" width="132" height="44" fill="#101400" stroke="#d7ff38"/>
      <text x="27" y="28" fill="#d7ff38">refs</text>
      <rect x="146" y="0" rx="22" width="162" height="44" fill="#111" stroke="#2b2b2b"/>
      <text x="172" y="28" fill="#f2f2e8">watchlist</text>
      <rect x="322" y="0" rx="22" width="150" height="44" fill="#111" stroke="#2b2b2b"/>
      <text x="350" y="28" fill="#f2f2e8">graph</text>
    </g>
  </g>

  <g transform="translate(652 56)" filter="url(#soft)">
    <rect x="0" y="0" width="498" height="528" rx="28" fill="#0b0b0b" stroke="#2b2b2b"/>
    <g transform="translate(26 26)">
      <rect x="0" y="0" width="112" height="170" rx="6" fill="#171717"/>
      <rect x="10" y="10" width="46" height="18" rx="9" fill="#d7ff38" opacity="0.9"/>
      <circle cx="72" cy="92" r="45" fill="#ff4d8d" opacity="0.78"/>
      <path d="M14 150c28-36 58-46 90-18v38H14z" fill="#76d7ff" opacity="0.7"/>

      <rect x="132" y="0" width="146" height="224" rx="6" fill="#111"/>
      <rect x="146" y="14" width="52" height="18" rx="9" fill="#f2f2e8" opacity="0.22"/>
      <path d="M144 198 198 40l38 95 22-44 20 107z" fill="#d7ff38" opacity="0.82"/>
      <rect x="144" y="198" width="120" height="16" rx="8" fill="#2b2b2b"/>

      <rect x="298" y="0" width="148" height="132" rx="6" fill="#151515"/>
      <path d="M312 30c44-28 86-16 120 36-42 20-82 32-120 36z" fill="#f2f2e8" opacity="0.7"/>
      <path d="M316 96h112" stroke="#d7ff38" stroke-width="8" stroke-linecap="round" opacity="0.9"/>

      <rect x="0" y="190" width="112" height="286" rx="6" fill="#111"/>
      <path d="M16 438c20-120 54-178 82-214 14 92 6 160-22 214z" fill="#ff4d8d" opacity="0.7"/>
      <circle cx="60" cy="300" r="34" fill="#f2f2e8" opacity="0.16"/>

      <rect x="132" y="244" width="146" height="232" rx="6" fill="#151515"/>
      <path d="M146 426c26-78 58-128 118-154v154z" fill="#76d7ff" opacity="0.7"/>
      <path d="M158 290h84M158 314h104M158 338h64" stroke="#f2f2e8" stroke-opacity="0.18" stroke-width="8" stroke-linecap="round"/>

      <rect x="298" y="152" width="148" height="324" rx="6" fill="#111"/>
      <circle cx="372" cy="254" r="46" fill="#d7ff38" opacity="0.18"/>
      <path d="M326 396c28-120 84-132 108-218 16 110-10 182-70 218z" fill="#d7ff38" opacity="0.84"/>
      <path d="M322 430h72M322 454h94" stroke="#f2f2e8" stroke-opacity="0.16" stroke-width="8" stroke-linecap="round"/>
    </g>
  </g>

  <text x="78" y="560" font-family="Inter, ui-sans-serif, system-ui, Arial" font-size="24" fill="#8d8d84">image-first refs · quiet metadata · stable R### IDs · static GitHub Pages</text>
</svg>
